<svg width="51" height="51" viewBox="0 0 51 51" fill="none" xmlns="http://www.w3.org/2000/svg">
<path d="M26.5189 16.3938L20.7389 7.34217C20.4005 6.69324 20.5537 5.90954 21.1206 5.54276C21.7689 5.20225 22.501 5.36141 22.8655 5.92441L28.6454 15.0306C28.9838 15.6795 28.8309 16.4635 28.2638 16.83C27.6171 17.1417 26.8248 16.9303 26.5189 16.3938ZM50.7838 18.0842C51.7135 19.7696 49.409 21.1515 48.33 21.7376C47.3849 21.6645 46.4852 21.5647 45.6309 21.4376C44.7766 21.3104 44.0223 21.1923 43.368 21.0832C42.6046 20.9377 41.8957 20.7924 41.2414 20.6469C41.1674 21.0105 41.0674 21.3922 40.9415 21.792C40.8136 22.1918 40.659 22.6099 40.478 23.0461C36.7609 22.242 32.3834 20.0668 30.3358 16.7209L37.3154 9.5778L38.5695 5.05197L41.2414 8.32366C43.0846 8.84182 45.6418 8.8782 46.4216 10.7774C47.0968 11.915 47.0421 14.3277 47.7847 15.2487C48.1846 15.6485 48.6209 16.0121 49.0934 16.3392C49.566 16.6664 50.1294 17.2481 50.7838 18.0842ZM24.6104 33.243C22.9585 33.2313 21.2345 32.6582 19.5938 32.6432C18.6487 32.5342 18.3033 32.9522 18.5578 33.8974L20.848 43.1125C20.8172 44.5928 20.0131 45.7264 18.8305 45.9208C17.6796 46.0314 16.5222 44.9932 16.2676 44.2031L13.3231 32.6432C13.2504 32.2433 13.0232 32.0525 12.6415 32.0707C12.2598 32.0888 12.0144 32.2797 11.9053 32.6432L9.17895 44.1487C8.81949 45.2283 7.94824 45.935 6.8888 45.948C5.3248 45.9206 4.24487 44.4678 4.54412 43.1125L7.87034 29.4806L8.14297 21.2469C5.25994 20.5155 1.61667 18.5431 0.181917 15.7941C-0.222811 14.9054 0.0705244 14.0435 0.836247 13.613C1.74133 13.1993 2.76507 13.5976 3.1264 14.2127C4.53812 16.4223 7.65456 17.8304 9.7788 17.8661H26.028C25.0227 22.9089 24.4602 27.9519 24.6104 33.243ZM28.5909 18.7931C31.3434 22.3725 35.3102 24.6156 39.551 25.5C39.1563 26.6815 38.6291 27.8311 38.2697 28.908C38.106 29.3987 38.1515 30.1166 38.4059 31.0619C39.4509 35.065 40.5998 39.3389 41.6231 43.058C42.0216 46.1732 37.6953 46.1069 37.0428 44.2031L34.6981 35.2605C34.0511 34.1623 32.433 33.906 32.0807 35.2605L29.9541 44.1486C28.8536 46.8929 24.9272 45.0478 25.3739 43.1125L27.3914 34.8243C27.4277 34.5334 27.4095 34.2425 27.3369 33.9519C27.3719 28.9018 27.5331 23.7351 28.5909 18.7931Z" fill="white"/>
</svg>
